<?xml version="1.0" standalone="no"?>
<!DOCTYPE svg PUBLIC "-//W3C//DTD SVG 20010904//EN"
 "http://www.w3.org/TR/2001/REC-SVG-20010904/DTD/svg10.dtd">
<svg version="1.0" xmlns="http://www.w3.org/2000/svg"
 width="512.000000pt" height="512.000000pt" viewBox="0 0 512.000000 512.000000"
 preserveAspectRatio="xMidYMid meet">

<g transform="translate(0.000000,512.000000) scale(0.100000,-0.100000)"
fill="#000000" stroke="none">
<path d="M2080 4659 c-815 -71 -1529 -547 -1859 -1239 -96 -201 -162 -420
-197 -655 -23 -149 -26 -530 -5 -675 83 -599 325 -1133 670 -1478 87 -87 169
-134 265 -151 41 -8 542 -11 1610 -11 1685 0 1631 -1 1735 55 74 41 206 143
310 241 171 161 317 355 407 539 44 91 87 205 80 212 -3 4 -282 35 -966 108
-1451 155 -2003 217 -2050 229 -30 9 -97 36 -148 61 -168 83 -304 243 -368
430 -39 113 -46 295 -16 413 54 212 194 391 383 487 37 19 536 195 1110 391
574 196 1055 361 1068 366 22 8 20 11 -45 64 -443 363 -977 570 -1581 614
-157 11 -266 11 -403 -1z"/>
<path d="M3503 3456 c-436 -149 -793 -274 -793 -277 0 -3 21 -21 46 -40 102
-75 210 -243 250 -389 25 -90 25 -290 0 -380 -24 -88 -77 -197 -127 -260 -22
-28 -38 -55 -34 -58 6 -6 2267 -253 2272 -249 1 2 -788 1853 -809 1898 l-13
27 -792 -272z"/>
<path d="M2148 2991 c-31 -10 -76 -30 -100 -44 -65 -38 -145 -128 -181 -204
-30 -64 -32 -74 -32 -183 0 -109 2 -119 32 -183 36 -76 116 -166 181 -204 222
-130 507 -50 626 176 160 305 -59 663 -404 660 -36 0 -91 -8 -122 -18z m203
-303 c41 -23 79 -84 79 -128 0 -44 -38 -105 -79 -128 -101 -57 -221 12 -221
128 0 116 120 185 221 128z"/>
</g>
</svg>
