<?xml version="1.0" standalone="no"?>
<!DOCTYPE svg PUBLIC "-//W3C//DTD SVG 20010904//EN"
 "http://www.w3.org/TR/2001/REC-SVG-20010904/DTD/svg10.dtd">
<svg version="1.0" xmlns="http://www.w3.org/2000/svg"
 width="512.000000pt" height="512.000000pt" viewBox="0 0 512.000000 512.000000"
 preserveAspectRatio="xMidYMid meet">

<g transform="translate(0.000000,512.000000) scale(0.100000,-0.100000)"
fill="#000000" stroke="none">
<path d="M1991 4326 c-26 -15 -50 -52 -51 -78 0 -9 295 -729 656 -1600 361
-871 678 -1637 705 -1703 54 -132 81 -165 133 -165 44 0 86 41 86 84 0 39
-1395 3412 -1424 3443 -27 29 -74 37 -105 19z"/>
<path d="M3046 4322 c-26 -16 -53 -73 -208 -446 l-177 -428 46 -114 c26 -63
49 -114 52 -114 10 0 421 1004 421 1028 0 34 -17 60 -50 77 -37 19 -48 19 -84
-3z"/>
<path d="M1543 4130 c-39 -10 -85 -26 -102 -35 l-31 -15 18 -43 c112 -279 117
-288 137 -283 11 2 52 16 92 30 40 14 112 31 161 38 l88 13 -65 158 -65 157
-80 -1 c-45 0 -113 -8 -153 -19z"/>
<path d="M3342 4134 c-18 -34 -123 -296 -120 -299 2 -1 41 -8 88 -14 47 -7
125 -26 173 -42 49 -17 90 -29 93 -27 6 7 134 318 134 328 0 20 -163 62 -261
67 -88 5 -98 4 -107 -13z"/>
<path d="M1153 3907 c-48 -41 -112 -96 -141 -123 l-53 -49 66 -159 c36 -88 67
-161 68 -163 2 -1 39 29 83 68 43 39 109 94 146 121 l67 50 -15 37 c-9 20 -39
93 -67 163 -29 70 -55 128 -59 128 -4 0 -47 -33 -95 -73z"/>
<path d="M3861 3958 c-5 -13 -34 -83 -65 -157 -31 -74 -56 -139 -56 -145 1 -6
24 -27 53 -47 29 -20 94 -73 144 -118 l92 -82 16 38 c9 21 39 93 67 161 l51
123 -39 41 c-47 48 -236 208 -247 208 -4 0 -11 -10 -16 -22z"/>
<path d="M1832 3640 c-54 -8 -177 -44 -200 -59 -10 -6 2 -46 53 -167 36 -87
69 -162 73 -166 4 -4 38 4 77 18 82 30 191 54 245 54 l39 0 -65 157 c-35 86
-66 159 -69 161 -9 9 -100 10 -153 2z"/>
<path d="M3144 3642 c-10 -7 -134 -298 -134 -314 0 -5 16 -8 35 -8 52 0 179
-28 253 -56 36 -13 66 -23 68 -22 5 6 134 321 134 328 0 14 -109 51 -190 66
-83 15 -149 17 -166 6z"/>
<path d="M770 3554 c-19 -19 -81 -72 -137 -117 -57 -45 -103 -85 -103 -89 0
-9 106 -272 124 -305 11 -21 13 -20 91 43 44 36 109 93 144 127 l63 61 -33 80
c-78 191 -96 230 -105 233 -5 2 -25 -13 -44 -33z"/>
<path d="M4236 3433 l-65 -158 67 -64 c83 -78 207 -181 220 -181 8 0 133 290
136 316 0 6 -33 37 -74 69 -41 32 -105 84 -141 117 -37 32 -69 58 -72 58 -2 0
-34 -71 -71 -157z"/>
<path d="M3596 3318 c-36 -90 -66 -166 -66 -169 0 -4 33 -31 73 -61 39 -31
103 -84 140 -118 40 -37 72 -59 77 -54 10 10 130 294 130 308 0 13 -168 165
-271 244 -15 11 -24 -6 -83 -150z"/>
<path d="M1371 3409 c-40 -34 -102 -89 -137 -123 l-64 -61 63 -152 c35 -84 66
-155 70 -159 3 -4 54 35 112 85 58 50 123 103 145 117 38 26 39 27 27 58 -90
221 -124 296 -132 296 -5 0 -43 -28 -84 -61z"/>
<path d="M257 3223 c-63 -22 -126 -36 -178 -40 -52 -4 -78 -10 -75 -17 55
-136 131 -303 140 -309 31 -22 286 24 345 62 11 7 0 41 -55 175 -38 91 -71
165 -74 164 -3 0 -49 -16 -103 -35z"/>
<path d="M4745 3226 c-9 -20 -38 -91 -66 -159 -28 -67 -53 -127 -55 -133 -14
-33 327 -107 357 -77 9 9 138 308 139 321 0 1 -18 2 -40 2 -75 0 -195 30 -303
75 -13 6 -20 -1 -32 -29z"/>
<path d="M2013 3129 c-44 -7 -183 -56 -183 -64 0 -1 24 -60 54 -131 30 -71 61
-146 69 -166 l16 -37 60 24 c72 28 187 55 235 55 69 0 69 -2 -3 170 l-66 160
-65 -1 c-36 -1 -88 -5 -117 -10z"/>
<path d="M2928 3134 c-3 -5 -20 -44 -38 -87 l-32 -77 34 -82 34 -81 66 -18
c36 -10 87 -27 115 -38 l50 -19 67 164 c37 90 65 168 61 174 -3 5 -43 21 -88
35 -85 27 -259 46 -269 29z"/>
<path d="M940 3013 c-47 -41 -112 -95 -145 -120 -33 -25 -59 -49 -58 -54 8
-28 127 -306 134 -313 9 -10 99 61 218 171 l74 69 -57 139 c-87 208 -67 195
-166 108z"/>
<path d="M4027 2927 l-67 -162 62 -58 c77 -71 217 -187 227 -187 4 0 36 71 72
157 35 86 65 160 67 163 1 4 -29 31 -69 60 -39 29 -96 76 -127 104 -109 98
-88 108 -165 -77z"/>
<path d="M1592 2911 c-40 -33 -105 -89 -143 -125 l-69 -66 64 -156 c35 -86 67
-158 70 -161 3 -3 38 24 77 61 39 36 105 91 145 121 l73 55 -20 48 c-11 26
-41 97 -66 157 -25 61 -48 113 -52 117 -4 4 -40 -19 -79 -51z"/>
<path d="M3386 2811 c-36 -88 -66 -163 -66 -168 0 -4 28 -29 63 -54 34 -26 99
-79 144 -118 l83 -72 23 53 c13 29 43 102 67 162 l45 109 -65 59 c-66 60 -195
169 -216 181 -8 4 -35 -49 -78 -152z"/>
<path d="M476 2720 c-43 -16 -117 -34 -165 -41 -47 -7 -88 -14 -90 -15 -2 -2
25 -74 60 -160 l64 -156 100 5 c61 3 125 13 165 26 112 35 110 22 33 209 -37
89 -72 162 -77 161 -6 -1 -46 -14 -90 -29z"/>
<path d="M4545 2740 c-3 -5 -34 -79 -70 -165 l-64 -155 30 -16 c54 -28 180
-54 259 -54 l78 0 65 158 65 157 -85 12 c-46 7 -125 26 -174 43 -103 34 -96
33 -104 20z"/>
<path d="M1961 1758 c-199 -480 -361 -883 -361 -896 0 -13 13 -37 29 -53 34
-34 83 -39 118 -11 15 11 134 288 368 854 l347 837 -28 71 -27 70 -42 0 -42 0
-362 -872z"/>
<path d="M1154 2510 c-43 -40 -107 -92 -141 -118 -35 -25 -63 -51 -63 -57 0
-12 123 -311 131 -320 6 -6 139 100 228 182 l65 59 -63 155 c-35 85 -67 158
-71 162 -4 4 -42 -24 -86 -63z"/>
<path d="M3818 2423 l-66 -158 52 -53 c54 -57 234 -208 240 -201 7 9 137 332
134 333 -27 15 -142 107 -205 163 -45 40 -84 73 -86 73 -2 0 -33 -71 -69 -157z"/>
<path d="M730 2228 c-57 -25 -194 -58 -240 -58 -69 -1 -69 -4 2 -171 l64 -154
95 1 c71 2 114 8 176 28 45 15 85 31 88 36 5 9 -119 318 -133 331 -4 4 -27 -2
-52 -13z"/>
<path d="M4330 2226 c-5 -11 -36 -86 -69 -166 -33 -80 -57 -148 -53 -152 23
-22 176 -61 262 -65 l95 -6 66 159 c43 104 62 161 55 165 -6 4 -42 9 -79 12
-38 4 -114 22 -168 41 l-100 34 -9 -22z"/>
</g>
</svg>
