<svg id="svg" version="1.1" xmlns="http://www.w3.org/2000/svg" xmlns:xlink="http://www.w3.org/1999/xlink" width="400" height="400" viewBox="0, 0, 400,400"><g id="svgg"><path id="path0" d="M181.326 1.259 C 99.404 14.988,65.693 117.723,123.260 178.215 C 189.026 247.324,305.462 200.836,305.462 105.469 C 305.462 39.345,246.986 -9.744,181.326 1.259 M208.984 24.559 C 262.598 28.631,297.197 90.123,273.785 139.728 C 246.882 196.729,169.897 203.416,133.166 151.942 C 107.540 116.031,117.147 63.165,153.810 38.337 C 167.463 29.092,189.088 22.568,201.563 23.931 C 202.637 24.048,205.977 24.331,208.984 24.559 M154.297 235.591 C 87.099 246.233,34.781 299.326,25.431 366.364 C 22.732 385.713,23.864 394.862,29.407 398.517 C 32.908 400.825,367.092 400.825,370.593 398.517 C 376.120 394.873,377.311 385.285,374.569 366.507 C 364.990 300.917,317.603 250.729,251.893 236.578 C 241.739 234.391,166.666 233.632,154.297 235.591 M230.871 258.570 C 293.648 262.904,341.827 308.856,351.103 373.242 L 351.581 376.563 200.000 376.563 L 48.419 376.563 48.897 373.242 C 57.188 315.688,96.665 272.382,151.361 260.842 C 164.482 258.074,206.354 256.877,230.871 258.570 " stroke="none" fill="#000000" fill-rule="evenodd"></path></g></svg>